<svg width="287" height="124" viewBox="0 0 287 124" fill="none" xmlns="http://www.w3.org/2000/svg">
<g filter="url(#dropshadow)">
<path fill-rule="evenodd" clip-rule="evenodd" d="M61.6814 12C86.9174 12 107.363 32.4503 107.363 57.6791C107.363 82.9079 86.9174 103.358 61.6814 103.358C36.4455 103.358 16 82.9079 16 57.6791C16 32.4503 36.4455 12 61.6814 12Z" fill="#0690C9"/>
<path fill-rule="evenodd" clip-rule="evenodd" d="M61.7171 90.5322C49.5544 83.0624 36.8782 80.0003 22.8944 81.8048C27.0083 88.4186 32.7445 93.8712 39.5583 97.6446C46.3721 101.418 54.0374 103.387 61.8263 103.365C69.6152 103.343 77.2691 101.33 84.0614 97.5181C90.8536 93.7059 96.5587 88.2208 100.635 81.5837C86.3706 80.1382 73.1713 82.7034 61.7266 90.5322" fill="#23364D"/>
<path fill-rule="evenodd" clip-rule="evenodd" d="M58.4363 45.2192H65.3307V46.6456H58.4363V45.2192ZM56.9623 42.0858H66.2484C68.0815 42.0914 69.8379 42.8221 71.1341 44.1183C72.4302 45.4145 73.1609 47.1709 73.1666 49.004V73.4078C69.1102 75.4245 65.2556 77.8239 61.6553 80.5733C57.8063 77.5944 54.0999 75.0245 50.0465 72.9656V49.004C50.0515 47.1711 50.7817 45.4147 52.0775 44.1185C53.3733 42.8222 55.1295 42.0914 56.9623 42.0858Z" fill="white"/>
<path fill-rule="evenodd" clip-rule="evenodd" d="M51.6228 48.4073H71.5928V74.209C68.2361 75.9943 65.0247 78.0404 61.9882 80.3284H61.3368C58.1035 77.8417 54.963 75.6473 51.6228 73.7977V48.4073Z" fill="#23364D"/>
<path fill-rule="evenodd" clip-rule="evenodd" d="M47.1152 27.976L61.798 19.4935L76.8064 27.6503L68.8493 29.8423V33.5843C68.801 35.4665 68.0193 37.2553 66.671 38.5695C65.3227 39.8836 63.5144 40.6191 61.6316 40.6191C59.7487 40.6191 57.9404 39.8836 56.5921 38.5695C55.2438 37.2553 54.4621 35.4665 54.4138 33.5843V29.8922L47.1152 27.976Z" fill="white"/>
<path d="M51.6393 28.4658H50.4982V38.1726H51.6393V28.4658Z" fill="white"/>
<path fill-rule="evenodd" clip-rule="evenodd" d="M24.4896 64.9586V69.963C44.2219 70.7594 49.3737 76.9121 61.7076 84.4888C74.0248 74.7796 84.5424 70.5217 99.7172 70.2245V65.2059C84.5424 65.4816 73.4828 69.4115 61.6529 78.3005C51.3588 70.341 42.0942 65.2938 24.4896 64.9586Z" fill="white"/>
<path fill-rule="evenodd" clip-rule="evenodd" d="M20.1628 76.7552C20.9809 78.485 21.8895 80.1705 22.8849 81.8048C36.8687 80.0003 49.5449 83.0624 61.7076 90.5322C73.1524 82.7034 86.3421 80.1382 100.616 81.5837C101.575 80.0237 102.44 78.4073 103.205 76.7433C88.7219 74.6964 72.9503 76.798 61.7076 84.4888C49.2549 76.8384 35.5207 74.1853 20.1628 76.7552Z" fill="white"/>
<path d="M65.1192 52.2254H53.9431V53.6518H65.1192V52.2254Z" fill="white"/>
<path d="M63.0675 57.0776H53.9431V58.504H63.0675V57.0776Z" fill="white"/>
<path d="M60.7828 61.9322H53.9431V63.3587H60.7828V61.9322Z" fill="white"/>
<path d="M64.1278 66.7845H53.9431V68.2109H64.1278V66.7845Z" fill="white"/>
<path fill-rule="evenodd" clip-rule="evenodd" d="M133.089 54.7216C130.818 54.7216 128.838 55.3754 127.266 57.0467C125.897 58.504 125.26 60.2467 125.186 62.2389C125.11 64.312 125.662 66.183 127.029 67.7592C128.614 69.585 130.723 70.234 133.089 70.234H141.295C143.661 70.234 145.77 69.585 147.355 67.7592C148.72 66.183 149.233 64.3048 149.157 62.2389C149.084 60.2371 148.444 58.5112 147.077 57.0467C145.513 55.3825 143.561 54.7216 141.295 54.7216H133.089ZM171.79 64.312L178.402 64.2977L175.099 58.8678L171.79 64.312ZM183.648 73.037L166.474 73.0513L162.882 78.9329H152.077L169.669 49.6245C170.309 48.5804 171.168 47.688 172.187 47.0094C173.01 46.4364 173.956 45.9728 174.971 45.9134C176.088 45.8231 177.146 46.213 178.078 46.8073C179.19 47.5333 180.116 48.5106 180.781 49.6602L197.989 78.9329H187.207L183.648 73.037ZM133.1 78.9804C128.227 78.9804 123.957 77.3496 120.712 73.6694C117.838 70.41 116.502 66.5111 116.502 62.1771C116.502 57.9905 117.738 54.1867 120.567 51.0723C123.864 47.4421 128.26 45.9847 133.1 45.9847H141.307C146.14 45.9847 150.51 47.4492 153.8 51.0723C156.634 54.1938 157.906 57.9667 157.906 62.1771C157.906 66.5111 156.57 70.41 153.696 73.6694C150.451 77.3496 146.181 78.9804 141.307 78.9804H133.1ZM234.952 78.505V70.234H259.135C260.131 70.234 261.218 70.0629 262.005 69.3996C262.464 69.0097 262.749 68.5794 262.749 67.9732C262.752 67.7136 262.692 67.4571 262.574 67.2259C262.456 66.9948 262.284 66.7959 262.071 66.6466C261.268 65.9928 260.138 65.8288 259.135 65.8288H245.251C242.182 65.8288 239.308 64.9681 237.106 62.7643C235.299 60.9391 234.285 58.4743 234.285 55.9056C234.285 53.3368 235.299 50.872 237.106 49.0468C239.31 46.843 242.18 45.9823 245.251 45.9823H269.241V54.724H245.251C244.8 54.724 244.277 54.7906 243.937 55.1163C243.818 55.2151 243.722 55.3391 243.657 55.4793C243.591 55.6194 243.558 55.7723 243.559 55.927C243.55 56.0626 243.572 56.1985 243.623 56.3245C243.674 56.4505 243.753 56.5633 243.853 56.6544C244.224 57.0087 244.757 57.0895 245.251 57.0895H259.135C262.487 57.0895 265.576 58.069 267.948 60.4939C268.939 61.4941 269.719 62.6825 270.243 63.9891C270.767 65.2957 271.024 66.694 270.998 68.1015C270.998 70.9972 270.019 73.5576 267.984 75.6236C265.606 78.0485 262.473 78.9852 259.135 78.9852H222.222L207.672 66.8391V78.9852H198.93V45.98H207.672V58.4398L222.207 45.98H235.354L215.748 62.7548L234.952 78.505Z" fill="#23364D"/>
</g>
<defs>
<filter id="filter0_d" x="0" y="0" width="287" height="123.365" filterUnits="userSpaceOnUse" color-interpolation-filters="sRGB">
<feFlood flood-opacity="0" result="BackgroundImageFix"/>
<feColorMatrix in="SourceAlpha" type="matrix" values="0 0 0 0 0 0 0 0 0 0 0 0 0 0 0 0 0 0 127 0"/>
<feOffset dy="4"/>
<feGaussianBlur stdDeviation="8"/>
<feColorMatrix type="matrix" values="0 0 0 0 0 0 0 0 0 0 0 0 0 0 0 0 0 0 0.134 0"/>
<feBlend mode="normal" in2="BackgroundImageFix" result="effect1_dropShadow"/>
<feBlend mode="normal" in="SourceGraphic" in2="effect1_dropShadow" result="shape"/>
</filter>
<filter id="dropshadow" height="130%">
  <feGaussianBlur in="SourceAlpha" stdDeviation="3"/> 
  <feOffset dx="2" dy="2" result="offsetblur"/>
  <feComponentTransfer>
	<feFuncA type="linear" slope="0.2"/>
  </feComponentTransfer>
  <feMerge> 
	<feMergeNode/>
	<feMergeNode in="SourceGraphic"/> 
  </feMerge>
</filter>
</defs>
</svg>
