<svg height="480pt" viewBox="-32 0 480 480.23349" width="480pt" xmlns="http://www.w3.org/2000/svg"><g fill="#bddbff"><path d="m61.078125 102.320312 17.4375 17.441407c-8.171875 6.890625-15.746094 14.464843-22.640625 22.636719l-17.4375-17.4375zm0 0"/><path d="m377.796875 124.960938-17.441406 17.4375c-6.890625-8.171876-14.464844-15.746094-22.640625-22.636719l17.441406-17.441407zm0 0"/><path d="m248.117188 16v16c0 4.417969-3.582032 8-8 8h-64c-4.417969 0-8-3.582031-8-8v-16c0-4.417969 3.582031-8 8-8h64c4.417968 0 8 3.582031 8 8zm0 0"/><path d="m219.398438 283.28125c-2.964844 3.039062-7.035157 4.742188-11.28125 4.71875-8.835938 0-16-7.164062-16-16s7.164062-16 16-16c8.835937 0 16 7.164062 16 16 .023437 4.246094-1.679688 8.316406-4.71875 11.28125zm0 0"/><path d="m360.355469 142.398438c57.433593 67.414062 63.695312 164.570312 15.386719 238.796874-48.304688 74.226563-139.675782 107.847657-224.574219 82.628907-84.894531-25.214844-143.097657-103.261719-143.050781-191.824219-.097657-47.523438 16.847656-93.503906 47.757812-129.601562 6.894531-8.171876 14.46875-15.746094 22.640625-22.636719 31.933594-27.3125 71.710937-43.78125 113.601563-47.042969 5.28125-.480469 10.640624-.71875 16-.71875 5.359374 0 10.71875.238281 16 .71875 41.890624 3.261719 81.667968 19.730469 113.597656 47.042969 8.175781 6.890625 15.75 14.464843 22.640625 22.636719zm15.761719 129.601562c0-92.785156-75.214844-168-168-168-92.785157 0-168 75.214844-168 168s75.214843 168 168 168c92.785156 0 168-75.214844 168-168zm0 0"/></g><path d="m208.117188 96c-97.203126 0-176 78.796875-176 176s78.796874 176 176 176c97.203124 0 176-78.796875 176-176-.109376-97.15625-78.84375-175.890625-176-176zm0 336c-88.367188 0-160-71.632812-160-160s71.632812-160 160-160c88.363281 0 160 71.632812 160 160-.101563 88.324219-71.675782 159.898438-160 160zm0 0" fill="#3d9ae2"/><path d="m371.085938 142.984375 12.367187-12.367187c3.121094-3.125 3.121094-8.1875 0-11.3125l-22.640625-22.640626c-3.125-3.125-8.1875-3.125-11.3125 0l-12.367188 12.367188c-30.246093-24.054688-66.625-39.164062-105.015624-43.605469v-17.425781h8c8.835937 0 16-7.164062 16-16v-16c0-8.835938-7.164063-16-16-16h-64c-8.835938 0-16 7.164062-16 16v16c0 8.835938 7.164062 16 16 16h8v17.425781c-38.390626 4.441407-74.769532 19.550781-105.015626 43.605469l-12.367187-12.367188c-3.125-3.125-8.191406-3.125-11.3125 0l-22.640625 22.640626c-3.125 3.125-3.125 8.1875 0 11.3125l12.367188 12.367187c-67.546876 85.167969-58.121094 207.984375 21.628906 281.851563 79.75 73.863281 202.929687 73.863281 282.679687 0 79.75-73.867188 89.175781-196.683594 21.628907-281.851563zm-15.929688-29.382813 11.359375 11.359376-5.832031 5.832031c-3.625-3.921875-7.402344-7.695313-11.328125-11.328125zm-179.039062-97.601562h64v16h-64zm24 32h16v16.199219c-2.65625-.09375-5.320313-.199219-8-.199219-2.679688 0-5.34375.105469-8 .199219zm-150.402344 76.960938 11.363281-11.359376 5.832031 5.832032c-3.921875 3.621094-7.699218 7.394531-11.328125 11.328125zm158.402344 339.039062c-106.039063 0-192-85.960938-192-192s85.960937-192 192-192c106.039062 0 192 85.960938 192 192-.125 105.988281-86.011719 191.875-192 192zm0 0" fill="#3d9ae2"/><path d="m232.117188 272c0-13.253906-10.746094-24-24-24-13.253907 0-24 10.746094-24 24s10.746093 24 24 24c3.5625-.015625 7.078124-.835938 10.28125-2.398438l48.0625 48.0625 11.3125-11.3125-48.058594-48.070312c1.566406-3.203125 2.386718-6.71875 2.402344-10.28125zm-32 0c0-4.417969 3.582031-8 8-8 4.417968 0 8 3.582031 8 8s-3.582032 8-8 8c-4.417969 0-8-3.582031-8-8zm0 0" fill="#3d9ae2"/><path d="m242.246094 148.601562-4.257813 15.398438c31.285157 8.679688 57.269531 30.496094 71.230469 59.804688 13.964844 29.308593 14.539062 63.230468 1.570312 92.996093l14.664063 6.398438c7.066406-16.140625 10.699219-33.578125 10.664063-51.199219-.09375-57.523438-38.460938-107.957031-93.871094-123.398438zm0 0" fill="#3d9ae2"/><path d="m225.171875 145.128906c-5.652344-.753906-11.351563-1.128906-17.054687-1.128906v16c4.996093 0 9.988281.328125 14.945312.984375zm0 0" fill="#3d9ae2"/></svg>